<svg width="61" height="61" viewBox="0 0 61 61" fill="none" xmlns="http://www.w3.org/2000/svg">
<g id="chess-solid 1" clip-path="url(#clip0_2_3)">
<path id="Vector" d="M17.1562 1.90625C17.1562 0.857812 16.2984 0 15.25 0C14.2016 0 13.3438 0.857812 13.3438 1.90625V3.8125H11.4375C10.3891 3.8125 9.53125 4.67031 9.53125 5.71875C9.53125 6.76719 10.3891 7.625 11.4375 7.625H13.3438V11.4375H7.17227C5.8498 11.4375 4.76562 12.5217 4.76562 13.8441C4.76562 14.142 4.8252 14.4279 4.92051 14.7139L8.79258 24.7812H8.57812C6.99355 24.7812 5.71875 26.0561 5.71875 27.6406C5.71875 29.2252 6.99355 30.5 8.57812 30.5H9.05469L7.14844 45.75H23.3516L21.4453 30.5H21.9219C23.5064 30.5 24.7812 29.2252 24.7812 27.6406C24.7812 26.0561 23.5064 24.7812 21.9219 24.7812H21.7074L25.5795 14.7139C25.6867 14.4398 25.7344 14.142 25.7344 13.8441C25.7344 12.5098 24.6502 11.4375 23.3277 11.4375H17.1562V7.625H19.0625C20.1109 7.625 20.9688 6.76719 20.9688 5.71875C20.9688 4.67031 20.1109 3.8125 19.0625 3.8125H17.1562V1.90625ZM5.71875 49.5625L0.571875 56.425C0.202539 56.9254 0 57.5211 0 58.1406C0 59.7252 1.2748 61 2.85938 61H27.6406C29.2252 61 30.5 59.7252 30.5 58.1406C30.5 57.5211 30.2975 56.9254 29.9281 56.425L24.7812 49.5625H5.71875ZM40.0312 49.5625L34.8844 56.425C34.515 56.9254 34.3125 57.5211 34.3125 58.1406C34.3125 59.7252 35.5873 61 37.1719 61H58.1406C59.7252 61 61 59.7252 61 58.1406C61 57.5211 60.7975 56.9254 60.4281 56.425L55.2812 49.5625H40.0312ZM36.2188 24.7812V30.9646C36.2188 31.8939 36.5523 32.7875 37.1719 33.4785L40.4125 37.1719L40.1504 45.75H55.1025L54.7094 37.1719L58.0811 33.5023C58.7244 32.7994 59.0938 31.882 59.0938 30.917V24.7812C59.0938 23.7328 58.2359 22.875 57.1875 22.875H55.2812C54.2328 22.875 53.375 23.7328 53.375 24.7812V26.6875H50.5156V24.7812C50.5156 23.7328 49.6578 22.875 48.6094 22.875H46.7031C45.6547 22.875 44.7969 23.7328 44.7969 24.7812V26.6875H41.9375V24.7812C41.9375 23.7328 41.0797 22.875 40.0312 22.875H38.125C37.0766 22.875 36.2188 23.7328 36.2188 24.7812ZM45.75 36.2188C45.75 35.1703 46.6078 34.3125 47.6562 34.3125C48.7047 34.3125 49.5625 35.1703 49.5625 36.2188V40.0312H45.75V36.2188Z" fill="#CDA88B"/>
</g>
<defs>
<clipPath id="clip0_2_3">
<rect width="61" height="61" fill="white"/>
</clipPath>
</defs>
</svg>
